<svg xmlns="http://www.w3.org/2000/svg" width="1280" height="720" viewBox="0 0 1280 720" role="img" aria-label="Lightning God cover art">
  <defs>
    <linearGradient id="bg" x1="0" y1="0" x2="1" y2="1">
      <stop offset="0%" stop-color="#08142f"/>
      <stop offset="100%" stop-color="#1b2f68"/>
    </linearGradient>
    <filter id="glow" x="-50%" y="-50%" width="200%" height="200%">
      <feGaussianBlur stdDeviation="4" result="blur"/>
      <feMerge>
        <feMergeNode in="blur"/>
        <feMergeNode in="SourceGraphic"/>
      </feMerge>
    </filter>
  </defs>
  <rect width="1280" height="720" fill="url(#bg)"/>
  <g stroke="#b8d5ff" stroke-width="4" opacity="0.95" filter="url(#glow)">
    <path d="M20 160 L180 120 L130 240 L260 180 L210 320" fill="none"/>
    <path d="M420 20 L380 150 L500 120 L430 280 L590 220" fill="none"/>
    <path d="M980 60 L920 180 L1040 140 L960 310 L1130 240" fill="none"/>
    <path d="M1240 130 L1120 220 L1210 250 L1060 360" fill="none"/>
    <path d="M670 110 L620 210 L740 180 L690 300" fill="none"/>
  </g>
  <g opacity="0.22" fill="#c7d8ff">
    <circle cx="1040" cy="220" r="120"/>
    <circle cx="260" cy="310" r="170"/>
    <circle cx="520" cy="430" r="150"/>
  </g>
  <text x="640" y="650" text-anchor="middle" fill="#f0d995" font-size="96" font-family="Georgia,serif" font-weight="700" letter-spacing="4">LIGHTNING GOD</text>
</svg>
